<svg version="1.2" xmlns="http://www.w3.org/2000/svg" viewBox="0 0 1071 876" width="1071" height="876"><style>.a{fill:#f0e5d8}.b{fill:#3f3d56}.c{fill:#a0616a}.d{fill:#2f2e41}.e{fill:#d75f5d}.f{fill:#fff}.g{fill:#e6e6e6}.h{opacity:.2}</style><path class="a" d="m373.1 636.3c-13.7 0-24.9-11.1-24.9-24.9 0-13.8 11.2-24.9 24.9-24.9 13.8 0 24.9 11.1 24.9 24.9 0 13.8-11.1 24.9-24.9 24.9zm697.9-330.3c0 0 0-379.8-362-292-362 87.8-136 142.2-262 204-126 61.8-344 32.2-392 102-48 69.8-98 168.2 8 310 106 141.8 174 86.2 308 118 134 31.8 70 110.2 210 126 140 15.8 364-83.8 454-144 90-60.2-120-253.8 36-424z"/><path class="b" d="m432.4 825.9h519.5v2.3h-519.5z"/><path class="c" d="m855 444.9c1 1.2 1.7 2.5 2.1 4 0.5 1.5 0.6 3 0.4 4.6-0.2 1.5-0.7 3-1.5 4.3-0.8 1.3-1.9 2.4-3.2 3.3l-53.8 36.9-23.6 15.8q-1 0.7-2.2 0.9-1.2 0.3-2.4 0.1-1.2-0.2-2.3-0.7-1-0.6-1.8-1.6c-0.6-0.7-1-1.6-1.3-2.5-0.2-0.9-0.2-1.8-0.1-2.8 0.2-0.9 0.6-1.8 1.1-2.5 0.6-0.8 1.3-1.5 2.1-1.9l22.9-13.4 40-38.1-25.7-27.6 19.1-14.3z"/><path class="c" d="m728.5 792.5h-13.1l-7.8-108.7 33.3-0.9-12.4 109.6z"/><path class="d" d="m729.5 827.7c-3.5 1.6-6.5-11.3-9.4-8.4-8.3 8.1-21 9.9-32 6.3h3.8q-1-0.3-1.8-1-0.8-0.7-1.2-1.7-0.5-0.9-0.5-2-0.1-1.1 0.3-2.1 0.2-0.5 0.6-1.1 0.3-0.5 0.8-0.9 0.5-0.4 1-0.7 0.6-0.3 1.2-0.5l8.8-2.2 13.8-24.3 14.1-0.9q2.4 3 4 6.5 1.6 3.4 2.4 7.2 0.8 3.7 0.8 7.5-0.1 3.8-1 7.5c-1.3 5.3-3.2 9.7-5.7 10.8z"/><path class="c" d="m816.1 792.5h-13.2l-7.8-108.7 34.3-6.6-13.3 115.3z"/><path class="d" d="m817 827.7c-3.5 1.6-6.4-11.3-9.4-8.4-8.2 8.1-20.9 9.9-31.9 6.3h3.8q-1-0.3-1.8-1-0.8-0.7-1.3-1.7-0.4-0.9-0.5-2 0-1.1 0.4-2.1 0.2-0.5 0.5-1.1 0.4-0.5 0.9-0.9 0.4-0.4 1-0.7 0.5-0.3 1.1-0.5l8.8-2.2 13.9-24.3 15-1.9 0.4 0.7q2.2 3.5 3.6 7.4 1.4 3.9 1.9 8 0.5 4.1 0.2 8.2-0.3 4.1-1.5 8.1c-1.3 4-3 7.2-5.1 8.1z"/><path class="e" d="m831 411.9c-12.1 1.6-20.5 8.3-23.9 21.5l-22.2-41.1c-0.7-1.3-1.1-2.7-1.2-4.1-0.2-1.4-0.1-2.9 0.3-4.3 0.3-1.4 0.9-2.7 1.7-3.9 0.9-1.2 1.9-2.3 3.1-3.1 1.2-0.9 2.6-1.5 4.1-1.9 1.5-0.3 3.1-0.4 4.6-0.2 1.5 0.2 3 0.8 4.3 1.5 1.4 0.8 2.5 1.8 3.5 3z"/><path class="d" d="m854.3 672.4c-54.1 23.9-109.4 26.9-165.8 11.4 20.6-79.9 44.9-152.1 44.8-211.5l55.3-4.8 8.5 13.5q7.5 12 13.9 24.6 6.4 12.7 11.6 25.9 5.1 13.1 9 26.7 3.9 13.7 6.5 27.6z"/><path class="c" d="m763.8 349.4c-15.8 0-28.6-12.8-28.6-28.6 0-15.8 12.8-28.6 28.6-28.6 15.8 0 28.6 12.8 28.6 28.6 0 15.8-12.8 28.6-28.6 28.6z"/><path class="c" d="m795.2 371.3l-35.2 1.9-5.8-31.5 28.6-4.7 12.4 34.3z"/><path class="e" d="m791.4 472.3l-38.6 1.1-19.5 2.7c-9.6-31.6-17.6-63.2 1.9-89.6l22.9-22.8 34.3-1 0.4 0.3c2.7 1.5 5.1 3.5 7.2 5.9 2 2.3 3.6 5 4.8 7.9 1.1 2.9 1.8 6 1.9 9.1 0.1 3.1-0.3 6.2-1.2 9.2-8.5 27.7-14 53.8-14.1 77.2z"/><path class="c" d="m732.3 560.9l-2.4 32.8q-0.1 1.3-0.6 2.5-0.6 1.2-1.5 2.1-0.9 0.9-2.1 1.5-1.2 0.5-2.6 0.6c-1 0.1-2-0.1-2.9-0.4-1-0.4-1.9-0.9-2.6-1.6-0.7-0.7-1.3-1.5-1.7-2.5-0.4-0.9-0.6-1.9-0.5-2.9l0.7-32.1 23.9-90.5 0.9-55.3 26.7-0.9-1.9 63.8z"/><path class="e" d="m770.4 418.9c-11.3-4.6-21.8-3-31.4 6.7l1.3-46.7c0.1-1.4 0.4-2.8 1-4.2 0.6-1.3 1.4-2.5 2.4-3.5 1-1.1 2.2-1.9 3.5-2.6 1.3-0.6 2.8-1 4.2-1.1 1.5-0.1 3.1 0 4.5 0.5 1.5 0.4 2.9 1.1 4.1 2.1 1.2 0.9 2.2 2.1 3 3.5 0.7 1.3 1.3 2.8 1.5 4.3z"/><path class="d" d="m824.3 448h-87.7c20.5-54.2 27.1-104.5 0-147.7 0.5-13 17.1-24.2 30-23 15.3 1.5 35.8 12.7 38.6 27.8z"/><path class="b" d="m544.9 274.9h-4v-109.5c0-8.3-1.6-16.6-4.8-24.3-3.2-7.7-7.9-14.6-13.8-20.5-5.9-5.9-12.9-10.6-20.5-13.8-7.7-3.2-16-4.8-24.3-4.8h-232.1c-8.3 0-16.6 1.6-24.3 4.8-7.7 3.2-14.6 7.9-20.5 13.8-5.9 5.9-10.6 12.8-13.8 20.5-3.2 7.7-4.8 16-4.8 24.3v601c0 8.3 1.6 16.5 4.8 24.2 3.2 7.7 7.9 14.7 13.8 20.6 5.9 5.9 12.8 10.6 20.5 13.8 7.7 3.1 16 4.8 24.3 4.8h232.1c8.3 0 16.6-1.7 24.3-4.8 7.6-3.2 14.6-7.9 20.5-13.8 5.9-5.9 10.6-12.9 13.8-20.6 3.2-7.7 4.8-15.9 4.8-24.2v-413.5h4z"/><path class="f" d="m480 118.5h-30.2c1.3 3.4 1.9 7.1 1.5 10.8-0.4 3.7-1.6 7.2-3.7 10.2-2.1 3.1-4.8 5.6-8.1 7.3-3.3 1.8-6.9 2.7-10.6 2.7h-132.9c-3.7 0-7.4-0.9-10.6-2.7-3.3-1.7-6-4.2-8.1-7.3-2.1-3-3.3-6.5-3.7-10.2-0.4-3.7 0.1-7.4 1.5-10.8h-28.3c-6.2 0-12.3 1.2-18.1 3.6-5.7 2.4-10.9 5.9-15.3 10.3-4.4 4.4-7.9 9.6-10.3 15.3-2.4 5.8-3.6 11.9-3.6 18.1v600.1c0 6.3 1.2 12.4 3.6 18.2 2.4 5.7 5.9 10.9 10.3 15.3 4.4 4.4 9.6 7.9 15.3 10.3 5.8 2.4 11.9 3.6 18.1 3.6h233.2c6.3 0 12.4-1.2 18.2-3.6 5.7-2.4 10.9-5.9 15.3-10.3 4.4-4.4 7.9-9.6 10.3-15.3 2.4-5.8 3.6-11.9 3.6-18.2v-600.1c0-6.2-1.2-12.3-3.6-18.1-2.4-5.7-5.9-10.9-10.3-15.3-4.4-4.4-9.6-7.9-15.3-10.3-5.8-2.4-11.9-3.6-18.2-3.6z"/><path class="g" d="m240.4 212.2h246v211h-246z"/><path class="e" d="m313.4 467.2c-9.9 0-18-8-18-18 0-9.9 8.1-18 18-18 10 0 18 8.1 18 18 0 10-8 18-18 18z"/><path class="f" d="m322.4 447.7h-7.5v-7.5h-3v7.5h-7.5v3h7.5v7.5h3v-7.5h7.5v-3z"/><path class="e" d="m408.4 467.2c-9.9 0-18-8-18-18 0-9.9 8.1-18 18-18 10 0 18 8.1 18 18 0 10-8 18-18 18z"/><path class="f" d="m417.4 447.7v3h-18v-3z"/><path class="e" d="m372.6 238.5h-19.4q-0.5 0-1 0.2-0.5 0.2-0.8 0.6-0.4 0.4-0.6 0.8-0.2 0.5-0.2 1v8.6q0 0.5 0.2 0.9 0.2 0.5 0.6 0.9 0.3 0.3 0.8 0.5 0.5 0.2 1 0.2h3.2v12.8h13v-12.8h3.2q0.5 0 1-0.2 0.5-0.2 0.8-0.5 0.4-0.4 0.6-0.9 0.2-0.4 0.2-0.9v-8.6q0-0.5-0.2-1-0.2-0.4-0.6-0.8-0.3-0.4-0.8-0.6-0.5-0.2-1-0.2z"/><path class="b" d="m392.1 316.6q-4.4-6.5-7.8-13.6-3.4-7.1-5.6-14.6-2.2-7.6-3.2-15.4-1-7.8-0.8-15.6 0-0.4-0.1-0.7-0.1-0.4-0.3-0.7-0.3-0.2-0.6-0.4-0.3-0.2-0.6-0.3v-3.7h-20.6v3.6h-0.3q-0.4 0-0.8 0.2-0.3 0.2-0.6 0.4-0.3 0.3-0.5 0.7-0.2 0.4-0.2 0.8 0 0.1 0 0.2 2.5 33.8-16.3 60.7-0.3 0.3-0.5 0.8-0.2 0.4-0.4 0.8-0.1 0.5-0.1 0.9-0.1 0.5-0.1 1l2.3 69.4q0 1.2 0.5 2.2 0.4 1.1 1.3 1.9 0.8 0.8 1.9 1.3 1.1 0.4 2.2 0.4h46.5q1.1 0 2.2-0.4 1.1-0.5 1.9-1.3 0.9-0.8 1.3-1.9 0.5-1.1 0.5-2.3l0.9-67.4q0-0.9-0.1-1.8-0.2-1-0.4-1.8-0.3-0.9-0.7-1.8-0.4-0.8-0.9-1.6z"/><path class="h" d="m368.6 241.3c0 1.5-0.6 2.9-1.7 4-1 1-2.4 1.6-3.9 1.6-1.5 0-2.9-0.6-3.9-1.6-1.1-1.1-1.7-2.5-1.7-4"/><path class="e" d="m384.7 339.7h-5.6c-0.5-3.5-2.3-6.7-5-8.9-2.6-2.3-6-3.6-9.6-3.6-3.5 0-6.9 1.3-9.6 3.6-2.7 2.2-4.4 5.4-5 8.9h-5.6q-0.9 0-1.7 0.4-0.8 0.4-1.4 1.1-0.6 0.6-0.9 1.5-0.2 0.9-0.1 1.8l6.1 39.7h35.1l7.4-39.6q0.2-0.9 0-1.8-0.3-0.9-0.9-1.6-0.6-0.7-1.4-1.1-0.8-0.4-1.8-0.4z"/><path class="g" d="m240.4 509.2h246v211h-246z"/><path class="e" d="m313.4 764.2c-9.9 0-18-8-18-18 0-9.9 8.1-18 18-18 10 0 18 8.1 18 18 0 10-8 18-18 18z"/><path class="f" d="m322.4 744.7h-7.5v-7.5h-3v7.5h-7.5v3h7.5v7.5h3v-7.5h7.5v-3z"/><path class="e" d="m408.4 764.2c-9.9 0-18-8-18-18 0-9.9 8.1-18 18-18 10 0 18 8.1 18 18 0 10-8 18-18 18z"/><path class="f" d="m417.4 744.7v3h-18v-3z"/><path class="f" d="m411.9 659.1h0.1c2.3 0.1 4.6-0.3 6.8-0.9 2.2-0.7 4.3-1.7 6.2-3 1.9-1.2 3.6-2.8 5.1-4.6 1.4-1.8 2.6-3.8 3.5-5.9 11.1-28.1 4.3-60.2-17.2-81.4-21.5-21.3-53.7-27.6-81.6-16.1-28 11.5-46.4 38.6-46.8 68.8-0.3 30.3 17.4 57.8 45.1 70 2.1 0.9 4.3 1.5 6.6 1.8 2.3 0.3 4.6 0.2 6.8-0.2 2.3-0.5 4.5-1.2 6.5-2.3 2-1 3.9-2.4 5.5-4 3.5-3.5 7.3-6.7 11.4-9.4 4.1-2.8 8.5-5.1 13.1-7 4.5-1.9 9.3-3.4 14.1-4.3 4.9-1 9.8-1.5 14.8-1.5z"/></svg>